<svg width="25" height="25" viewBox="0 0 25 25" fill="none" xmlns="http://www.w3.org/2000/svg">
<path d="M23.75 25C24.4404 25 25.0033 24.44 24.9688 23.7505C24.8258 20.8944 24.1937 18.0807 23.097 15.4329C21.8406 12.3998 19.9991 9.6438 17.6777 7.32233C15.3562 5.00087 12.6002 3.15938 9.56709 1.90301C6.91933 0.806278 4.10565 0.174168 1.24949 0.0312428C0.559998 -0.0032602 -1.90735e-06 0.559644 -1.90735e-06 1.25C-1.90735e-06 1.94036 0.560087 2.49638 1.24938 2.53471C3.77705 2.67528 6.26599 3.24163 8.61038 4.21271C11.3402 5.34344 13.8206 7.00078 15.9099 9.0901C17.9992 11.1794 19.6566 13.6598 20.7873 16.3896C21.7584 18.734 22.3247 21.2229 22.4653 23.7506C22.5036 24.4399 23.0596 25 23.75 25Z" fill="#8D93AB"/>
</svg>
