<svg width="649" height="626" viewBox="0 0 649 626" fill="none" xmlns="http://www.w3.org/2000/svg">
<circle cx="313" cy="313" r="313" fill="#D6E0F0" fill-opacity="0.81"/>
<path d="M568.341 358.112C566.387 347.232 565.188 336.228 564.754 325.182C564.368 316.084 561.178 307.329 555.622 300.116C550.066 292.903 542.416 287.586 533.72 284.894C530.55 283.918 527.061 283.006 523.207 282.188C489.422 275.01 479.158 281.276 477.991 282.101C477.003 280.304 476.144 278.439 475.42 276.52C475.362 276.323 475.309 276.125 475.251 275.94C481.938 268.807 486.012 259.618 486.809 249.872C492.446 244.159 495.737 237.26 495.737 229.833C495.737 223.445 493.299 217.453 489.033 212.267V202.175C489.033 190.537 484.411 179.375 476.184 171.145C467.957 162.916 456.799 158.292 445.164 158.292H441.605C435.844 158.292 430.14 159.428 424.818 161.633C419.495 163.838 414.659 167.07 410.585 171.145C406.512 175.22 403.281 180.058 401.076 185.382C398.871 190.706 397.737 196.412 397.737 202.175V213.051C393.865 218.051 391.67 223.759 391.67 229.821C391.67 237.092 394.828 243.851 400.25 249.495C400.991 259.598 405.252 269.121 412.29 276.404C412.528 278.053 412.772 279.824 413.01 281.694L352.579 294.463C352.579 294.463 329.278 295.422 314.266 326.401C301.57 352.642 276.307 420.06 268.824 440.129C267.471 443.764 266.705 445.848 266.705 445.848C266.705 445.848 266.955 445.599 267.425 445.169L266.705 447.126C266.705 447.126 267.071 446.754 267.767 446.144C266.711 454.541 266.56 468.96 277.555 470.754C286.773 472.258 310.527 472.879 328.471 473.129H329.713C341.608 473.286 350.658 473.286 350.658 473.286V473.129H543.641V471.149C543.643 469.353 543.281 467.575 542.578 465.923L542.845 465.597C543.878 466.961 544.565 468.555 544.848 470.243C544.826 470.407 544.795 470.57 544.755 470.731L544.871 470.435C544.917 470.962 544.877 471.493 544.755 472.008C544.755 472.008 569.514 408.197 569.247 370.092C569.318 366.079 569.015 362.069 568.341 358.112ZM414.014 290.317C413.694 288.497 413.489 286.658 413.399 284.812C413.399 284.812 413.399 284.778 413.399 284.76C413.613 286.554 413.822 288.413 414.014 290.317ZM339.001 427.382V442.591L329.481 444.629L339.001 427.382Z" fill="url(#paint0_linear)"/>
<path d="M442.406 164.43C454.041 164.43 465.199 169.053 473.426 177.283C481.653 185.513 486.275 196.674 486.275 208.313V227.034H398.537V208.313C398.537 196.674 403.159 185.513 411.386 177.283C419.613 169.053 430.771 164.43 442.406 164.43Z" fill="#E14B5A"/>
<path d="M442.714 267.543C470.33 267.543 492.718 252.154 492.718 233.172C492.718 214.189 470.33 198.801 442.714 198.801C415.097 198.801 392.709 214.189 392.709 233.172C392.709 252.154 415.097 267.543 442.714 267.543Z" fill="#E14B5A"/>
<path d="M410.658 266.468C410.658 266.468 421.107 321.093 410.658 335.825C400.209 350.557 442.586 356.388 442.586 356.388L486.449 340.43L492.585 301.147C492.585 301.147 465.882 286.107 471.414 255.726L410.658 266.468Z" fill="#F7C4A7"/>
<path d="M540.122 450.604C540.122 450.604 542.885 462.572 527.85 464.72C518.973 466.027 509.945 465.919 501.101 464.401L497.786 434.339H532.762L540.122 450.604Z" fill="#F7C4A7"/>
<path d="M274.635 435.285C274.635 435.285 267.994 462.281 283.029 464.72C298.064 467.159 353.27 467.177 353.27 467.177V435.239L328.274 440.581L304.81 418.074L274.635 435.285Z" fill="#F7C4A7"/>
<path opacity="0.1" d="M413.886 284.115L355.133 296.542C355.133 296.542 332.737 297.465 318.317 327.231C303.898 356.997 272.603 442.01 272.603 442.01C272.603 442.01 299.306 415.002 330.589 443.85L351.453 406.106L346.849 465.951H508.508V437.713C508.508 437.713 542.253 455.818 539.803 465.945C539.803 465.945 568.683 391.513 562.443 357.688C560.564 347.231 559.412 336.657 558.995 326.041C558.626 317.297 555.561 308.882 550.221 301.951C544.881 295.019 537.527 289.91 529.168 287.326C526.126 286.392 522.783 285.515 519.067 284.731C484.4 277.368 475.53 284.731 475.53 284.731C475.53 284.731 468.813 306.588 468.935 316.494C469.086 329.229 450.835 337.672 450.835 337.672C450.835 337.672 423.836 331.226 422.611 326.012C421.386 320.797 411.726 290.253 413.886 284.115Z" fill="black"/>
<path d="M413.886 282.89L355.133 295.317C355.133 295.317 332.737 296.24 318.317 326.006C303.898 355.772 272.597 440.796 272.597 440.796C272.597 440.796 299.3 413.788 330.583 442.637L351.447 404.892L346.843 464.72H508.508V436.487C508.508 436.487 542.253 454.593 539.803 464.72C539.803 464.72 568.683 390.288 562.443 356.463C560.564 346.006 559.412 335.432 558.995 324.816C558.626 316.072 555.561 307.657 550.221 300.725C544.881 293.794 537.527 288.685 529.168 286.101C526.126 285.166 522.783 284.29 519.067 283.506C484.4 276.143 475.53 283.506 475.53 283.506C475.53 283.506 468.813 305.363 468.935 315.269C469.086 328.004 450.835 336.447 450.835 336.447C450.835 336.447 423.836 330.001 422.611 324.787C421.386 319.572 411.726 289.028 413.886 282.89Z" fill="#8D93AB"/>
<path opacity="0.1" d="M473.921 280.283C471.453 273.293 470.9 265.771 472.319 258.495L411.563 269.232C411.563 269.232 412.44 273.825 413.433 280.707C417.358 284.781 422.071 288.015 427.285 290.21C432.499 292.406 438.105 293.517 443.762 293.478C449.419 293.438 455.009 292.248 460.192 289.98C465.374 287.711 470.042 284.412 473.91 280.283H473.921Z" fill="black"/>
<path d="M484.284 248.978C484.236 259.929 479.888 270.423 472.177 278.196C464.466 285.97 454.009 290.4 443.062 290.533C432.116 290.666 421.555 286.489 413.658 278.905C405.761 271.32 401.16 260.935 400.848 249.988C400.848 249.652 400.848 249.315 400.848 248.978C400.846 241.163 403.037 233.505 407.172 226.874C411.307 220.243 417.219 214.907 424.236 211.472C425.486 210.86 426.771 210.31 428.091 209.822C434.955 207.298 442.358 206.61 449.569 207.825C458.812 209.399 467.254 214.043 473.532 221.008C479.811 227.972 483.56 236.85 484.173 246.208C484.247 247.126 484.284 248.049 484.284 248.978Z" fill="#F7C4A7"/>
<g opacity="0.1">
<path opacity="0.1" d="M428.027 210.804L428.085 210.769C426.765 211.257 425.48 211.806 424.23 212.418C417.213 215.853 411.301 221.19 407.166 227.82C403.031 234.451 400.84 242.11 400.842 249.924C400.842 250.261 400.842 250.598 400.842 250.935C402.139 250.9 403.415 250.593 404.586 250.035C414.756 245.285 420.84 230.756 423.255 220.623C424.126 216.994 424.944 212.906 428.027 210.804Z" fill="black"/>
<path opacity="0.1" d="M459.961 211.971C456.658 210.453 453.17 209.377 449.587 208.771C452.526 209.448 455.15 211.097 457.035 213.452C457.958 214.708 458.725 216.073 459.316 217.516C453.763 215.088 447.75 213.895 441.691 214.02C435.632 214.146 429.672 215.586 424.225 218.242C426.843 223.985 434.964 227.115 440.386 229.211C446.323 231.503 452.321 233.599 458.382 235.5L453.018 231.145L465.133 233.073C465.263 230.661 464.976 228.245 464.285 225.931C466.607 227.8 469.684 228.427 472.203 229.995C476.923 232.974 478.891 238.706 481.462 243.67C482.142 244.983 482.943 246.324 484.168 247.155C483.672 239.653 481.162 232.425 476.901 226.233C472.641 220.04 466.788 215.113 459.961 211.971Z" fill="black"/>
</g>
<path d="M428.027 209.857L428.085 209.822C426.765 210.31 425.48 210.86 424.23 211.471C417.213 214.907 411.301 220.243 407.166 226.874C403.031 233.504 400.84 241.163 400.842 248.978C400.842 249.315 400.842 249.652 400.842 249.988C402.139 249.953 403.415 249.647 404.586 249.088C414.756 244.338 420.84 229.809 423.255 219.677C424.126 216.07 424.944 211.965 428.027 209.857Z" fill="#632652"/>
<path d="M459.961 211.03C456.658 209.513 453.17 208.437 449.587 207.831C452.526 208.507 455.15 210.156 457.035 212.511C457.958 213.767 458.725 215.133 459.316 216.576C453.763 214.147 447.75 212.954 441.691 213.08C435.632 213.205 429.672 214.645 424.225 217.302C426.843 223.045 434.964 226.174 440.386 228.271C446.323 230.562 452.321 232.659 458.382 234.56L453.018 230.204L465.133 232.132C465.263 229.72 464.976 227.304 464.285 224.99C466.607 226.86 469.684 227.487 472.203 229.055C476.923 232.034 478.891 237.765 481.462 242.73C482.142 244.042 482.943 245.384 484.168 246.214C483.672 238.713 481.162 231.484 476.901 225.292C472.641 219.099 466.788 214.172 459.961 211.03Z" fill="#632652"/>
<path opacity="0.1" d="M396.082 242.097C396.082 242.097 439.039 188.674 488.736 242.097L484.441 230.129C484.441 230.129 461.122 196.066 444.56 203.417C427.998 210.769 411.732 216.001 411.732 216.001L396.082 242.097Z" fill="black"/>
<path d="M396.082 241.15C396.082 241.15 439.039 187.727 488.736 241.15L484.441 229.182C484.441 229.182 461.122 195.119 444.56 202.471C427.998 209.822 411.732 215.054 411.732 215.054L396.082 241.15Z" fill="#E14B5A"/>
<path opacity="0.1" d="M360.798 356.237C360.798 356.237 351.597 380.788 364.479 402.883C377.36 424.978 353.13 434.188 353.13 434.188" fill="black"/>
<path opacity="0.1" d="M509.901 334.141C509.901 334.141 525.853 354.396 515.422 372.501C504.99 390.607 505.605 434.188 505.605 434.188" fill="black"/>
<path d="M346.686 452.294H524.013C527.919 452.294 531.665 453.846 534.427 456.609C537.189 459.371 538.741 463.119 538.741 467.026H331.965C331.965 463.12 333.516 459.373 336.276 456.611C339.037 453.848 342.782 452.295 346.686 452.294Z" fill="#535461"/>
<path d="M364.729 351.016H505.977C508.95 351.016 511.894 351.602 514.641 352.74C517.388 353.878 519.883 355.546 521.986 357.649C524.088 359.752 525.756 362.249 526.893 364.996C528.031 367.744 528.617 370.689 528.617 373.663V455.667H342.089V373.663C342.089 367.657 344.474 361.896 348.72 357.649C352.966 353.402 358.724 351.016 364.729 351.016Z" fill="#535461"/>
<path d="M435.196 418.997C441.298 418.997 446.243 414.05 446.243 407.947C446.243 401.844 441.298 396.896 435.196 396.896C429.095 396.896 424.149 401.844 424.149 407.947C424.149 414.05 429.095 418.997 435.196 418.997Z" fill="white"/>
<path opacity="0.1" d="M398.537 217.058C398.537 217.058 440.751 174.853 486.28 216.285" stroke="black" stroke-miterlimit="10"/>
<path d="M496.945 214.369H492.707V238.404H496.945V214.369Z" fill="#6A5C99"/>
<path d="M487.053 229.92C490.926 229.92 494.641 231.459 497.38 234.199C500.119 236.939 501.658 240.655 501.658 244.53V245.471C501.658 249.346 500.119 253.062 497.38 255.802C494.641 258.541 490.926 260.081 487.053 260.081V229.92Z" fill="#FFD037"/>
<path d="M490.82 231.807C490.82 229.985 489.344 228.509 487.523 228.509C485.702 228.509 484.226 229.985 484.226 231.807V258.199C484.226 260.021 485.702 261.498 487.523 261.498C489.344 261.498 490.82 260.021 490.82 258.199V231.807Z" fill="#6A5C99"/>
<path d="M387.438 238.874H391.676V214.839H387.438V238.874Z" fill="#6A5C99"/>
<path d="M397.33 260.551C393.456 260.551 389.742 259.012 387.002 256.272C384.263 253.532 382.725 249.816 382.725 245.941V245C382.725 243.082 383.102 241.182 383.836 239.409C384.57 237.637 385.646 236.026 387.002 234.669C388.359 233.313 389.969 232.237 391.741 231.502C393.513 230.768 395.412 230.39 397.33 230.39V260.551Z" fill="#FFD037"/>
<path d="M393.563 258.664C393.563 260.485 395.039 261.962 396.86 261.962C398.681 261.962 400.157 260.485 400.157 258.664V232.272C400.157 230.45 398.681 228.973 396.86 228.973C395.039 228.973 393.563 230.45 393.563 232.272V258.664Z" fill="#6A5C99"/>
<path d="M492.208 188.679C486.467 176.741 473.962 162.305 447.01 161.149V161.114H446.685L437.135 161.567V161.614C410.362 162.845 397.916 177.228 392.193 189.127C388.38 197.193 386.357 205.988 386.26 214.909L389.557 214.828L392.854 214.752C392.997 206.81 394.823 198.988 398.212 191.804C405.48 176.868 418.855 168.93 437.96 168.193L446.406 167.722C465.522 168.454 478.903 176.404 486.165 191.333C489.56 198.52 491.39 206.346 491.534 214.294L494.832 214.369L498.129 214.45C498.034 205.534 496.014 196.743 492.208 188.679Z" fill="#FFD037"/>
<path d="M642.843 467.217H193.12V588H642.843V467.217Z" fill="#D6D6E3"/>
<path opacity="0.1" d="M642.843 475.347H193.12V491.025H642.843V475.347Z" fill="black"/>
<path d="M673 465.475H162.951V481.154H673V465.475Z" fill="#D6D6E3"/>
<defs>
<linearGradient id="paint0_linear" x1="417.979" y1="473.315" x2="417.979" y2="158.292" gradientUnits="userSpaceOnUse">
<stop stop-color="#808080" stop-opacity="0.25"/>
<stop offset="0.54" stop-color="#808080" stop-opacity="0.12"/>
<stop offset="1" stop-color="#808080" stop-opacity="0.1"/>
</linearGradient>
</defs>
</svg>
