<svg width="745" height="626" viewBox="0 0 745 626" fill="none" xmlns="http://www.w3.org/2000/svg">
<circle cx="385" cy="313" r="313" fill="#D6E0F0" fill-opacity="0.81"/>
<path d="M611.873 31.3467H0.411133V422.954H611.873V31.3467Z" fill="#E6E6E6"/>
<path d="M594.388 80.4639H17.896V399.786H594.388V80.4639Z" fill="#535461"/>
<path d="M611.612 31H0.150391V56.9771H611.612V31Z" fill="#8D93AB"/>
<path d="M19.4543 49.0956C22.1134 49.0956 24.269 46.94 24.269 44.281C24.269 41.6219 22.1134 39.4663 19.4543 39.4663C16.7953 39.4663 14.6396 41.6219 14.6396 44.281C14.6396 46.94 16.7953 49.0956 19.4543 49.0956Z" fill="white"/>
<path d="M37.7297 49.0956C40.3888 49.0956 42.5444 46.94 42.5444 44.281C42.5444 41.6219 40.3888 39.4663 37.7297 39.4663C35.0706 39.4663 32.915 41.6219 32.915 44.281C32.915 46.94 35.0706 49.0956 37.7297 49.0956Z" fill="white"/>
<path d="M56.0051 49.0956C58.6642 49.0956 60.8198 46.94 60.8198 44.281C60.8198 41.6219 58.6642 39.4663 56.0051 39.4663C53.346 39.4663 51.1904 41.6219 51.1904 44.281C51.1904 46.94 53.346 49.0956 56.0051 49.0956Z" fill="white"/>
<path d="M431.267 110.373H243.58C243.179 110.32 242.812 110.123 242.545 109.819C242.279 109.515 242.132 109.125 242.132 108.721C242.132 108.317 242.279 107.926 242.545 107.623C242.812 107.319 243.179 107.122 243.58 107.069H431.267C431.668 107.122 432.036 107.319 432.302 107.623C432.569 107.926 432.715 108.317 432.715 108.721C432.715 109.125 432.569 109.515 432.302 109.819C432.036 110.123 431.668 110.32 431.267 110.373Z" fill="#CCCCCC"/>
<path d="M301.218 128.54H181.886C181.486 128.487 181.118 128.291 180.851 127.987C180.585 127.683 180.438 127.293 180.438 126.888C180.438 126.484 180.585 126.094 180.851 125.79C181.118 125.486 181.486 125.29 181.886 125.237H301.218C301.619 125.29 301.987 125.486 302.253 125.79C302.519 126.094 302.666 126.484 302.666 126.888C302.666 127.293 302.519 127.683 302.253 127.987C301.987 128.291 301.619 128.487 301.218 128.54Z" fill="#CCCCCC"/>
<path d="M431.266 128.87H311.935C311.534 128.817 311.166 128.621 310.9 128.317C310.633 128.013 310.486 127.623 310.486 127.219C310.486 126.815 310.633 126.424 310.9 126.12C311.166 125.817 311.534 125.62 311.935 125.567H431.267C431.667 125.62 432.035 125.817 432.301 126.12C432.568 126.424 432.715 126.815 432.715 127.219C432.715 127.623 432.568 128.013 432.301 128.317C432.035 128.621 431.667 128.817 431.267 128.87H431.266Z" fill="#CCCCCC"/>
<path d="M301.508 146.707H182.176C181.775 146.655 181.407 146.458 181.141 146.154C180.874 145.85 180.728 145.46 180.728 145.056C180.728 144.652 180.874 144.261 181.141 143.958C181.407 143.654 181.775 143.457 182.176 143.404H301.508C301.908 143.457 302.276 143.654 302.543 143.958C302.809 144.261 302.956 144.652 302.956 145.056C302.956 145.46 302.809 145.85 302.543 146.154C302.276 146.458 301.908 146.655 301.508 146.707Z" fill="#CCCCCC"/>
<path d="M301.798 164.875H182.466C182.065 164.822 181.697 164.626 181.431 164.322C181.164 164.018 181.018 163.627 181.018 163.223C181.018 162.819 181.164 162.429 181.431 162.125C181.697 161.821 182.065 161.625 182.466 161.572H301.798C302.198 161.625 302.566 161.821 302.833 162.125C303.099 162.429 303.246 162.819 303.246 163.223C303.246 163.627 303.099 164.018 302.833 164.322C302.566 164.626 302.198 164.822 301.798 164.875Z" fill="#CCCCCC"/>
<path d="M355.961 146.707H321.783C321.382 146.655 321.015 146.458 320.748 146.154C320.482 145.85 320.335 145.46 320.335 145.056C320.335 144.652 320.482 144.261 320.748 143.958C321.015 143.654 321.382 143.457 321.783 143.404H355.961C356.361 143.457 356.729 143.654 356.996 143.958C357.262 144.261 357.409 144.652 357.409 145.056C357.409 145.46 357.262 145.85 356.996 146.154C356.729 146.458 356.361 146.655 355.961 146.707Z" fill="#CCCCCC"/>
<path d="M355.961 164.545H321.783C321.382 164.492 321.015 164.295 320.748 163.991C320.482 163.687 320.335 163.297 320.335 162.893C320.335 162.489 320.482 162.099 320.748 161.795C321.015 161.491 321.382 161.294 321.783 161.241H355.961C356.361 161.294 356.729 161.491 356.996 161.795C357.262 162.099 357.409 162.489 357.409 162.893C357.409 163.297 357.262 163.687 356.996 163.991C356.729 164.295 356.361 164.492 355.961 164.545Z" fill="#CCCCCC"/>
<path d="M413.309 164.545H379.132C378.731 164.492 378.363 164.295 378.097 163.991C377.83 163.687 377.684 163.297 377.684 162.893C377.684 162.489 377.83 162.099 378.097 161.795C378.363 161.491 378.731 161.294 379.132 161.241H413.309C413.71 161.294 414.078 161.491 414.344 161.795C414.611 162.099 414.758 162.489 414.758 162.893C414.758 163.297 414.611 163.687 414.344 163.991C414.078 164.295 413.71 164.492 413.309 164.545Z" fill="#CCCCCC"/>
<path d="M215.195 110.373H181.018C180.617 110.32 180.249 110.123 179.983 109.819C179.716 109.515 179.569 109.125 179.569 108.721C179.569 108.317 179.716 107.926 179.983 107.623C180.249 107.319 180.617 107.122 181.018 107.069H215.195C215.596 107.122 215.964 107.319 216.23 107.623C216.496 107.926 216.643 108.317 216.643 108.721C216.643 109.125 216.496 109.515 216.23 109.819C215.964 110.123 215.596 110.32 215.195 110.373Z" fill="#CCCCCC"/>
<path d="M300.784 318.678H181.452C181.051 318.626 180.683 318.429 180.417 318.125C180.15 317.821 180.003 317.431 180.003 317.027C180.003 316.623 180.15 316.232 180.417 315.929C180.683 315.625 181.051 315.428 181.452 315.375H300.784C301.184 315.428 301.552 315.625 301.818 315.929C302.085 316.232 302.232 316.623 302.232 317.027C302.232 317.431 302.085 317.821 301.818 318.125C301.552 318.429 301.184 318.626 300.784 318.678H300.784Z" fill="#CCCCCC"/>
<path d="M300.204 355.013H180.872C180.472 354.961 180.104 354.764 179.838 354.46C179.571 354.156 179.424 353.766 179.424 353.362C179.424 352.958 179.571 352.567 179.838 352.263C180.104 351.96 180.472 351.763 180.872 351.71H300.205C300.605 351.763 300.973 351.96 301.239 352.263C301.506 352.567 301.653 352.958 301.653 353.362C301.653 353.766 301.506 354.156 301.239 354.46C300.973 354.764 300.605 354.961 300.205 355.013H300.204Z" fill="#CCCCCC"/>
<path d="M300.494 373.181H181.162C180.761 373.128 180.394 372.931 180.127 372.627C179.861 372.324 179.714 371.933 179.714 371.529C179.714 371.125 179.861 370.735 180.127 370.431C180.394 370.127 180.761 369.93 181.162 369.877H300.494C300.895 369.93 301.263 370.127 301.529 370.431C301.795 370.735 301.942 371.125 301.942 371.529C301.942 371.933 301.795 372.324 301.529 372.627C301.263 372.931 300.895 373.128 300.494 373.181H300.494Z" fill="#CCCCCC"/>
<path d="M351.471 355.344H317.293C316.892 355.291 316.524 355.094 316.258 354.79C315.992 354.487 315.845 354.096 315.845 353.692C315.845 353.288 315.992 352.898 316.258 352.594C316.524 352.29 316.892 352.093 317.293 352.041H351.471C351.871 352.093 352.239 352.29 352.505 352.594C352.772 352.898 352.919 353.288 352.919 353.692C352.919 354.096 352.772 354.487 352.505 354.79C352.239 355.094 351.871 355.291 351.471 355.344Z" fill="#CCCCCC"/>
<path d="M351.471 373.181H317.293C316.892 373.128 316.524 372.931 316.258 372.627C315.992 372.324 315.845 371.933 315.845 371.529C315.845 371.125 315.992 370.735 316.258 370.431C316.524 370.127 316.892 369.93 317.293 369.877H351.471C351.871 369.93 352.239 370.127 352.505 370.431C352.772 370.735 352.919 371.125 352.919 371.529C352.919 371.933 352.772 372.324 352.505 372.627C352.239 372.931 351.871 373.128 351.471 373.181Z" fill="#CCCCCC"/>
<path d="M408.82 355.344H374.643C374.242 355.291 373.874 355.094 373.608 354.79C373.341 354.487 373.194 354.096 373.194 353.692C373.194 353.288 373.341 352.898 373.608 352.594C373.874 352.29 374.242 352.093 374.643 352.041H408.82C409.221 352.093 409.589 352.29 409.855 352.594C410.121 352.898 410.268 353.288 410.268 353.692C410.268 354.096 410.121 354.487 409.855 354.79C409.589 355.094 409.221 355.291 408.82 355.344Z" fill="#CCCCCC"/>
<path d="M431.412 336.846H243.725C243.324 336.793 242.956 336.596 242.69 336.293C242.423 335.989 242.276 335.598 242.276 335.194C242.276 334.79 242.423 334.4 242.69 334.096C242.956 333.792 243.324 333.596 243.725 333.543H431.412C431.812 333.596 432.18 333.792 432.447 334.096C432.713 334.4 432.86 334.79 432.86 335.194C432.86 335.598 432.713 335.989 432.447 336.293C432.18 336.596 431.812 336.793 431.412 336.846Z" fill="#CCCCCC"/>
<path d="M215.34 336.846H181.162C180.761 336.793 180.394 336.596 180.127 336.293C179.861 335.989 179.714 335.598 179.714 335.194C179.714 334.79 179.861 334.4 180.127 334.096C180.394 333.792 180.761 333.596 181.162 333.543H215.34C215.74 333.596 216.108 333.792 216.375 334.096C216.641 334.4 216.788 334.79 216.788 335.194C216.788 335.598 216.641 335.989 216.375 336.293C216.108 336.596 215.74 336.793 215.34 336.846Z" fill="#CCCCCC"/>
<path d="M271.965 194.221L225.622 239.985L271.965 285.748L282.392 275.321L247.345 240.274L282.681 204.938L271.965 194.221Z" fill="#E6E6E6"/>
<path d="M340.32 194.221L386.662 239.985L340.32 285.748L329.893 275.321L364.94 240.274L329.604 204.938L340.32 194.221Z" fill="#E6E6E6"/>
<path d="M271.965 194.221L225.622 239.985L271.965 285.748L282.392 275.321L247.345 240.274L282.681 204.938L271.965 194.221Z" fill="#FCFCFC"/>
<path d="M340.32 194.221L386.662 239.985L340.32 285.748L329.893 275.321L364.94 240.274L329.604 204.938L340.32 194.221Z" fill="#FCFCFC"/>
<path d="M640.341 358.112C638.387 347.231 637.188 336.228 636.754 325.181C636.368 316.084 633.178 307.329 627.622 300.116C622.066 292.903 614.416 287.586 605.72 284.893C602.55 283.918 599.061 283.006 595.207 282.187C561.422 275.01 551.158 281.276 549.991 282.1C549.003 280.303 548.144 278.439 547.42 276.52C547.362 276.323 547.309 276.125 547.251 275.939C553.938 268.806 558.012 259.618 558.809 249.872C564.446 244.158 567.737 237.26 567.737 229.833C567.737 223.445 565.299 217.453 561.033 212.267V202.175C561.033 190.536 556.411 179.375 548.184 171.145C539.957 162.916 528.799 158.292 517.164 158.292H513.605C507.844 158.292 502.14 159.427 496.818 161.633C491.495 163.838 486.659 167.07 482.585 171.145C478.512 175.22 475.281 180.058 473.076 185.382C470.871 190.706 469.737 196.412 469.737 202.175V213.051C465.865 218.051 463.67 223.759 463.67 229.821C463.67 237.091 466.828 243.851 472.25 249.495C472.991 259.598 477.252 269.12 484.29 276.404C484.528 278.053 484.772 279.824 485.01 281.694L424.579 294.463C424.579 294.463 401.278 295.421 386.266 326.401C373.57 352.642 348.307 420.06 340.824 440.128C339.471 443.763 338.705 445.848 338.705 445.848C338.705 445.848 338.955 445.598 339.425 445.169L338.705 447.126C338.705 447.126 339.071 446.754 339.767 446.144C338.711 454.541 338.56 468.959 349.555 470.754C358.773 472.258 382.527 472.879 400.471 473.129H401.713C413.608 473.285 422.658 473.285 422.658 473.285V473.129H615.641V471.149C615.643 469.353 615.281 467.575 614.578 465.922L614.845 465.597C615.878 466.961 616.565 468.555 616.848 470.243C616.826 470.407 616.795 470.57 616.755 470.73L616.871 470.434C616.917 470.962 616.877 471.493 616.755 472.008C616.755 472.008 641.514 408.196 641.247 370.092C641.318 366.079 641.015 362.069 640.341 358.112ZM486.014 290.317C485.694 288.497 485.489 286.658 485.399 284.812C485.399 284.812 485.399 284.777 485.399 284.76C485.613 286.554 485.822 288.412 486.014 290.317ZM411.001 427.382V442.59L401.481 444.629L411.001 427.382Z" fill="url(#paint0_linear)"/>
<path d="M514.406 164.43C526.041 164.43 537.199 169.053 545.426 177.283C553.653 185.513 558.275 196.674 558.275 208.313V227.034H470.537V208.313C470.537 196.674 475.159 185.513 483.386 177.283C491.613 169.053 502.771 164.43 514.406 164.43Z" fill="#E14B5A"/>
<path d="M514.714 267.543C542.33 267.543 564.718 252.154 564.718 233.172C564.718 214.189 542.33 198.801 514.714 198.801C487.097 198.801 464.709 214.189 464.709 233.172C464.709 252.154 487.097 267.543 514.714 267.543Z" fill="#E14B5A"/>
<path d="M482.658 266.468C482.658 266.468 493.107 321.093 482.658 335.825C472.209 350.557 514.586 356.388 514.586 356.388L558.449 340.43L564.585 301.147C564.585 301.147 537.882 286.107 543.414 255.726L482.658 266.468Z" fill="#F7C4A7"/>
<path d="M612.122 450.604C612.122 450.604 614.885 462.572 599.85 464.72C590.973 466.027 581.945 465.919 573.101 464.401L569.786 434.339H604.762L612.122 450.604Z" fill="#F7C4A7"/>
<path d="M346.635 435.285C346.635 435.285 339.994 462.281 355.029 464.72C370.064 467.159 425.27 467.177 425.27 467.177V435.239L400.274 440.581L376.81 418.074L346.635 435.285Z" fill="#F7C4A7"/>
<path opacity="0.1" d="M485.886 284.115L427.133 296.542C427.133 296.542 404.737 297.465 390.317 327.231C375.898 356.997 344.603 442.01 344.603 442.01C344.603 442.01 371.306 415.002 402.589 443.85L423.453 406.106L418.849 465.951H580.508V437.713C580.508 437.713 614.253 455.818 611.803 465.945C611.803 465.945 640.683 391.513 634.443 357.688C632.564 347.231 631.412 336.657 630.995 326.041C630.626 317.297 627.561 308.882 622.221 301.951C616.881 295.019 609.527 289.91 601.168 287.326C598.126 286.392 594.783 285.515 591.067 284.731C556.4 277.368 547.53 284.731 547.53 284.731C547.53 284.731 540.813 306.588 540.935 316.494C541.086 329.229 522.835 337.672 522.835 337.672C522.835 337.672 495.836 331.226 494.611 326.012C493.386 320.797 483.726 290.253 485.886 284.115Z" fill="black"/>
<path d="M485.886 282.89L427.133 295.317C427.133 295.317 404.737 296.24 390.317 326.006C375.898 355.772 344.597 440.796 344.597 440.796C344.597 440.796 371.3 413.788 402.583 442.637L423.447 404.892L418.843 464.72H580.508V436.487C580.508 436.487 614.253 454.593 611.803 464.72C611.803 464.72 640.683 390.288 634.443 356.463C632.564 346.006 631.412 335.432 630.995 324.816C630.626 316.072 627.561 307.657 622.221 300.725C616.881 293.794 609.527 288.685 601.168 286.101C598.126 285.166 594.783 284.29 591.067 283.506C556.4 276.143 547.53 283.506 547.53 283.506C547.53 283.506 540.813 305.363 540.935 315.269C541.086 328.004 522.835 336.447 522.835 336.447C522.835 336.447 495.836 330.001 494.611 324.787C493.386 319.572 483.726 289.028 485.886 282.89Z" fill="#8D93AB"/>
<path opacity="0.1" d="M545.921 280.283C543.453 273.293 542.9 265.771 544.319 258.495L483.563 269.232C483.563 269.232 484.44 273.825 485.433 280.707C489.358 284.781 494.071 288.015 499.285 290.21C504.499 292.406 510.105 293.517 515.762 293.478C521.419 293.438 527.009 292.248 532.192 289.98C537.374 287.711 542.042 284.412 545.91 280.283H545.921Z" fill="black"/>
<path d="M556.284 248.978C556.236 259.929 551.888 270.423 544.177 278.196C536.466 285.97 526.009 290.4 515.062 290.533C504.116 290.666 493.555 286.489 485.658 278.905C477.761 271.32 473.16 260.935 472.848 249.988C472.848 249.652 472.848 249.315 472.848 248.978C472.846 241.163 475.037 233.505 479.172 226.874C483.307 220.243 489.219 214.907 496.236 211.472C497.486 210.86 498.771 210.31 500.091 209.822C506.955 207.298 514.358 206.61 521.569 207.825C530.812 209.399 539.254 214.043 545.532 221.008C551.811 227.972 555.56 236.85 556.173 246.208C556.247 247.126 556.284 248.049 556.284 248.978Z" fill="#F7C4A7"/>
<g opacity="0.1">
<path opacity="0.1" d="M500.027 210.804L500.085 210.769C498.765 211.257 497.48 211.806 496.23 212.418C489.213 215.853 483.301 221.19 479.166 227.82C475.031 234.451 472.84 242.11 472.842 249.924C472.842 250.261 472.842 250.598 472.842 250.935C474.139 250.9 475.415 250.593 476.586 250.035C486.756 245.285 492.84 230.756 495.255 220.623C496.126 216.994 496.944 212.906 500.027 210.804Z" fill="black"/>
<path opacity="0.1" d="M531.961 211.971C528.658 210.453 525.17 209.377 521.587 208.771C524.526 209.448 527.15 211.097 529.035 213.452C529.958 214.708 530.725 216.073 531.316 217.516C525.763 215.088 519.75 213.895 513.691 214.02C507.632 214.146 501.672 215.586 496.225 218.242C498.843 223.985 506.964 227.115 512.386 229.211C518.323 231.503 524.321 233.599 530.382 235.5L525.018 231.145L537.133 233.073C537.263 230.661 536.976 228.245 536.285 225.931C538.607 227.8 541.684 228.427 544.203 229.995C548.923 232.974 550.891 238.706 553.462 243.67C554.142 244.983 554.943 246.324 556.168 247.155C555.672 239.653 553.162 232.425 548.901 226.233C544.641 220.04 538.788 215.113 531.961 211.971Z" fill="black"/>
</g>
<path d="M500.027 209.857L500.085 209.822C498.765 210.31 497.48 210.86 496.23 211.471C489.213 214.907 483.301 220.243 479.166 226.874C475.031 233.504 472.84 241.163 472.842 248.978C472.842 249.315 472.842 249.652 472.842 249.988C474.139 249.953 475.415 249.647 476.586 249.088C486.756 244.338 492.84 229.809 495.255 219.677C496.126 216.07 496.944 211.965 500.027 209.857Z" fill="#632652"/>
<path d="M531.961 211.03C528.658 209.513 525.17 208.437 521.587 207.831C524.526 208.507 527.15 210.156 529.035 212.511C529.958 213.767 530.725 215.133 531.316 216.576C525.763 214.147 519.75 212.954 513.691 213.08C507.632 213.205 501.672 214.645 496.225 217.302C498.843 223.045 506.964 226.174 512.386 228.271C518.323 230.562 524.321 232.659 530.382 234.56L525.018 230.204L537.133 232.132C537.263 229.72 536.976 227.304 536.285 224.99C538.607 226.86 541.684 227.487 544.203 229.055C548.923 232.034 550.891 237.765 553.462 242.73C554.142 244.042 554.943 245.384 556.168 246.214C555.672 238.713 553.162 231.484 548.901 225.292C544.641 219.099 538.788 214.172 531.961 211.03Z" fill="#632652"/>
<path opacity="0.1" d="M468.082 242.097C468.082 242.097 511.039 188.674 560.736 242.097L556.441 230.129C556.441 230.129 533.122 196.066 516.56 203.417C499.998 210.769 483.732 216.001 483.732 216.001L468.082 242.097Z" fill="black"/>
<path d="M468.082 241.15C468.082 241.15 511.039 187.727 560.736 241.15L556.441 229.182C556.441 229.182 533.122 195.119 516.56 202.471C499.998 209.822 483.732 215.054 483.732 215.054L468.082 241.15Z" fill="#E14B5A"/>
<path opacity="0.1" d="M432.798 356.237C432.798 356.237 423.597 380.788 436.479 402.883C449.36 424.978 425.13 434.188 425.13 434.188" fill="black"/>
<path opacity="0.1" d="M581.901 334.141C581.901 334.141 597.853 354.396 587.422 372.501C576.99 390.607 577.605 434.188 577.605 434.188" fill="black"/>
<path d="M418.686 452.294H596.013C599.919 452.294 603.665 453.846 606.427 456.609C609.189 459.371 610.741 463.119 610.741 467.026H403.965C403.965 463.12 405.516 459.373 408.276 456.611C411.037 453.848 414.782 452.295 418.686 452.294Z" fill="#535461"/>
<path d="M436.729 351.016H577.977C580.95 351.016 583.894 351.602 586.641 352.74C589.388 353.878 591.883 355.546 593.986 357.649C596.088 359.752 597.756 362.249 598.893 364.996C600.031 367.744 600.617 370.689 600.617 373.663V455.667H414.089V373.663C414.089 367.657 416.474 361.896 420.72 357.649C424.966 353.402 430.724 351.016 436.729 351.016Z" fill="#535461"/>
<path d="M507.196 418.997C513.298 418.997 518.243 414.05 518.243 407.947C518.243 401.844 513.298 396.896 507.196 396.896C501.095 396.896 496.149 401.844 496.149 407.947C496.149 414.05 501.095 418.997 507.196 418.997Z" fill="white"/>
<path opacity="0.1" d="M470.537 217.058C470.537 217.058 512.751 174.853 558.28 216.285" stroke="black" stroke-miterlimit="10"/>
<path d="M568.945 214.369H564.707V238.404H568.945V214.369Z" fill="#6A5C99"/>
<path d="M559.053 229.92C562.926 229.92 566.641 231.459 569.38 234.199C572.119 236.939 573.658 240.655 573.658 244.53V245.471C573.658 249.346 572.119 253.062 569.38 255.802C566.641 258.541 562.926 260.081 559.053 260.081V229.92Z" fill="#FFD037"/>
<path d="M562.82 231.807C562.82 229.985 561.344 228.509 559.523 228.509C557.702 228.509 556.226 229.985 556.226 231.807V258.199C556.226 260.021 557.702 261.498 559.523 261.498C561.344 261.498 562.82 260.021 562.82 258.199V231.807Z" fill="#6A5C99"/>
<path d="M459.438 238.874H463.676V214.839H459.438V238.874Z" fill="#6A5C99"/>
<path d="M469.33 260.551C465.456 260.551 461.742 259.012 459.002 256.272C456.263 253.532 454.725 249.816 454.725 245.941V245C454.725 243.082 455.102 241.182 455.836 239.409C456.57 237.637 457.646 236.026 459.002 234.669C460.359 233.313 461.969 232.237 463.741 231.502C465.513 230.768 467.412 230.39 469.33 230.39V260.551Z" fill="#FFD037"/>
<path d="M465.563 258.664C465.563 260.485 467.039 261.962 468.86 261.962C470.681 261.962 472.157 260.485 472.157 258.664V232.272C472.157 230.45 470.681 228.973 468.86 228.973C467.039 228.973 465.563 230.45 465.563 232.272V258.664Z" fill="#6A5C99"/>
<path d="M564.208 188.68C558.467 176.741 545.962 162.305 519.01 161.149V161.115H518.685L509.135 161.567V161.614C482.362 162.845 469.916 177.229 464.193 189.127C460.38 197.193 458.357 205.988 458.26 214.909L461.557 214.828L464.854 214.752C464.997 206.81 466.823 198.988 470.212 191.804C477.48 176.869 490.855 168.931 509.96 168.193L518.406 167.723C537.522 168.454 550.903 176.404 558.165 191.333C561.56 198.52 563.39 206.346 563.534 214.294L566.832 214.369L570.129 214.451C570.034 205.534 568.014 196.743 564.208 188.68Z" fill="#FFD037"/>
<path d="M714.843 467.217H265.12V588H714.843V467.217Z" fill="#D6D6E3"/>
<path opacity="0.1" d="M714.843 475.347H265.12V491.025H714.843V475.347Z" fill="black"/>
<path d="M745 465.475H234.951V481.154H745V465.475Z" fill="#D6D6E3"/>
<defs>
<linearGradient id="paint0_linear" x1="489.979" y1="473.315" x2="489.979" y2="158.292" gradientUnits="userSpaceOnUse">
<stop stop-color="#808080" stop-opacity="0.25"/>
<stop offset="0.54" stop-color="#808080" stop-opacity="0.12"/>
<stop offset="1" stop-color="#808080" stop-opacity="0.1"/>
</linearGradient>
</defs>
</svg>
